<svg width="34" height="34" viewBox="0 0 34 34" fill="none" xmlns="http://www.w3.org/2000/svg">
<g id="ph:basket">
<path id="Vector" d="M18.0625 15.9375V23.375C18.0625 23.6568 17.9506 23.927 17.7513 24.1263C17.5521 24.3256 17.2818 24.4375 17 24.4375C16.7182 24.4375 16.448 24.3256 16.2487 24.1263C16.0494 23.927 15.9375 23.6568 15.9375 23.375V15.9375C15.9375 15.6557 16.0494 15.3855 16.2487 15.1862C16.448 14.9869 16.7182 14.875 17 14.875C17.2818 14.875 17.5521 14.9869 17.7513 15.1862C17.9506 15.3855 18.0625 15.6557 18.0625 15.9375ZM31.8564 13.0302L30.0156 26.8441C29.9474 27.3546 29.696 27.8229 29.3083 28.162C28.9206 28.5011 28.423 28.6879 27.9079 28.6875H6.09212C5.57705 28.6879 5.07938 28.5011 4.69168 28.162C4.30398 27.8229 4.05263 27.3546 3.98438 26.8441L2.14227 13.0316C2.10213 12.7313 2.12666 12.4259 2.21422 12.1358C2.30179 11.8458 2.45036 11.5778 2.64997 11.3499C2.84958 11.122 3.09561 10.9394 3.37157 10.8144C3.64754 10.6894 3.94704 10.6248 4.25001 10.625H9.0804L16.2031 2.48758C16.3028 2.37452 16.4255 2.28397 16.5629 2.22195C16.7002 2.15993 16.8493 2.12785 17 2.12785C17.1507 2.12785 17.2998 2.15993 17.4372 2.22195C17.5746 2.28397 17.6972 2.37452 17.7969 2.48758L24.9196 10.625H29.75C30.0526 10.6252 30.3517 10.69 30.6272 10.8151C30.9028 10.9402 31.1484 11.1228 31.3477 11.3505C31.547 11.5782 31.6954 11.8459 31.7829 12.1355C31.8704 12.4252 31.895 12.7303 31.8551 13.0302H31.8564ZM11.904 10.625H22.096L17 4.80117L11.904 10.625ZM29.75 12.75H4.25001L6.09212 26.5625H27.9079L29.75 12.75ZM22.9553 15.8312L22.2116 23.2687C22.1969 23.408 22.2098 23.5488 22.2497 23.683C22.2896 23.8172 22.3557 23.9422 22.444 24.0508C22.5324 24.1595 22.6414 24.2495 22.7647 24.3159C22.888 24.3822 23.0232 24.4236 23.1625 24.4375C23.1983 24.4395 23.2343 24.4395 23.2701 24.4375C23.5333 24.4372 23.7869 24.3392 23.982 24.1625C24.1771 23.9859 24.2996 23.7431 24.3259 23.4812L25.0697 16.0437C25.0979 15.7634 25.0135 15.4833 24.8352 15.2651C24.6568 15.0469 24.3991 14.9085 24.1188 14.8803C23.8384 14.8521 23.5583 14.9365 23.3401 15.1148C23.1219 15.2932 22.9835 15.5509 22.9553 15.8312ZM11.0447 15.8312C11.0165 15.5509 10.8781 15.2932 10.6599 15.1148C10.4417 14.9365 10.1616 14.8521 9.88126 14.8803C9.60087 14.9085 9.34317 15.0469 9.16483 15.2651C8.9865 15.4833 8.90214 15.7634 8.93032 16.0437L9.67407 23.4812C9.7005 23.7442 9.824 23.9879 10.0205 24.1648C10.2169 24.3416 10.4723 24.4388 10.7366 24.4375C10.7724 24.4395 10.8083 24.4395 10.8441 24.4375C10.983 24.4235 11.1177 24.3824 11.2406 24.3164C11.3636 24.2503 11.4723 24.1608 11.5606 24.0527C11.6489 23.9447 11.715 23.8203 11.7553 23.6867C11.7955 23.5531 11.809 23.4129 11.7951 23.2741L11.0447 15.8312Z" fill="white"/>
</g>
</svg>
