<svg width="179" height="27" viewBox="0 0 179 27" fill="none" xmlns="http://www.w3.org/2000/svg">
<path d="M6.72 4.496H0.704V1.68H15.776V4.496H9.76V26H6.72V4.496ZM31.3808 26H19.2208V1.68H31.3808V4.496H22.2608V15.472H29.8448V18.288H22.2608V23.184H31.3808V26ZM37.5655 26H34.1415L40.9255 13.2L34.8135 1.68H38.2695L42.6535 10.32L47.0695 1.68H50.4935L44.3815 13.2L51.1975 26H47.7415L42.6535 16.08L37.5655 26ZM57.6983 18.288V26H54.6583V1.68H57.6983V15.472H68.3223V1.68H71.3623V26H68.3223V18.288H57.6983ZM84.941 1.296C89.965 1.296 93.997 5.328 93.997 10.352C93.997 15.376 89.965 19.408 84.941 19.408C79.885 19.408 75.917 15.408 75.917 10.352C75.917 5.296 79.885 1.296 84.941 1.296ZM78.957 10.352C78.957 13.68 81.613 16.368 84.941 16.368C88.301 16.368 90.957 13.712 90.957 10.352C90.957 7.024 88.269 4.368 84.941 4.368C81.645 4.368 78.957 7.056 78.957 10.352ZM92.461 26H77.421V22.96H92.461V26ZM97.3813 13.84C97.3813 6.96 102.789 1.296 109.733 1.296C113.157 1.296 116.101 2.544 118.533 5.04L116.389 7.184C114.533 5.264 112.325 4.304 109.733 4.304C104.453 4.304 100.453 8.656 100.453 13.84C100.453 19.024 104.453 23.376 109.733 23.376C112.357 23.376 114.565 22.416 116.389 20.496L118.533 22.64C116.101 25.136 113.157 26.384 109.733 26.384C102.789 26.384 97.3813 20.72 97.3813 13.84ZM139.488 0.719999V26H136.448V6.96L125.792 15.216V26H122.752V1.68H125.792V11.376L139.488 0.719999ZM148.97 4.496H142.954V1.68H158.026V4.496H152.01V26H148.97V4.496ZM178.207 0.719999V26H175.167V6.96L164.511 15.216V26H161.471V1.68H164.511V11.376L178.207 0.719999Z" fill="white"/>
</svg>
