<svg width="35" height="35" viewBox="0 0 35 35" fill="none" xmlns="http://www.w3.org/2000/svg">
<g id="octicon:trash-16">
<path id="Vector" d="M24.0625 3.82812V6.5625H28.9844C29.4195 6.5625 29.8368 6.73535 30.1445 7.04303C30.4521 7.3507 30.625 7.768 30.625 8.20312C30.625 8.63825 30.4521 9.05555 30.1445 9.36322C29.8368 9.6709 29.4195 9.84375 28.9844 9.84375H6.01562C5.5805 9.84375 5.1632 9.6709 4.85553 9.36322C4.54785 9.05555 4.375 8.63825 4.375 8.20312C4.375 7.768 4.54785 7.3507 4.85553 7.04303C5.1632 6.73535 5.5805 6.5625 6.01562 6.5625H10.9375V3.82812C10.9375 1.715 12.6525 0 14.7656 0H20.2344C22.3475 0 24.0625 1.715 24.0625 3.82812ZM9.835 14.6016L11.2788 29.0391C11.2923 29.174 11.3556 29.2992 11.4562 29.3901C11.5569 29.4811 11.6878 29.5314 11.8234 29.5312H23.1766C23.3122 29.5314 23.4431 29.4811 23.5438 29.3901C23.6444 29.2992 23.7077 29.174 23.7213 29.0391L25.165 14.6016C25.2192 14.1778 25.4367 13.7919 25.771 13.5259C26.1054 13.26 26.5303 13.1349 26.9554 13.1774C27.3805 13.2198 27.7723 13.4264 28.0474 13.7533C28.3226 14.0801 28.4594 14.5014 28.4288 14.9275L26.985 29.365C26.8916 30.3099 26.4499 31.1863 25.7459 31.8235C25.042 32.4608 24.1261 32.8133 23.1766 32.8125H11.8234C10.8745 32.8124 9.95946 32.4598 9.25577 31.8232C8.55207 31.1866 8.10989 30.3114 8.015 29.3672L6.57125 14.9297C6.54385 14.7125 6.56021 14.492 6.61936 14.2812C6.6785 14.0704 6.77924 13.8735 6.91564 13.7023C7.05204 13.531 7.22133 13.3888 7.41355 13.284C7.60577 13.1792 7.81702 13.1139 8.03486 13.092C8.2527 13.0701 8.47272 13.092 8.68196 13.1565C8.8912 13.2209 9.08542 13.3266 9.25318 13.4673C9.42093 13.608 9.55884 13.7808 9.65876 13.9756C9.75869 14.1704 9.81861 14.3832 9.835 14.6016ZM14.2188 3.82812V6.5625H20.7812V3.82812C20.7812 3.68308 20.7236 3.54399 20.6211 3.44143C20.5185 3.33887 20.3794 3.28125 20.2344 3.28125H14.7656C14.6206 3.28125 14.4815 3.33887 14.3789 3.44143C14.2764 3.54399 14.2188 3.68308 14.2188 3.82812Z" fill="#292929"/>
</g>
</svg>
